<?xml version="1.0" standalone="no"?><!DOCTYPE svg PUBLIC "-//W3C//DTD SVG 1.1//EN" "http://www.w3.org/Graphics/SVG/1.1/DTD/svg11.dtd"><svg t="1538047359680" class="icon" style="" viewBox="0 0 1024 1024" version="1.1" xmlns="http://www.w3.org/2000/svg" p-id="7155" xmlns:xlink="http://www.w3.org/1999/xlink" width="64" height="64"><defs><style type="text/css"></style></defs><path d="M436.063923 492.606056 143.726876 200.26901C122.757708 179.299842 122.757708 145.302102 143.726876 124.332932 164.696046 103.363764 198.693786 103.363764 219.662954 124.332932L512 416.669979 804.33705 124.332932C825.306214 103.363764 859.303955 103.363764 880.273126 124.332932 901.242291 145.302102 901.242291 179.299842 880.273126 200.26901L587.936077 492.606056 880.273126 784.943104C901.242291 805.912269 901.242291 839.91001 880.273126 860.879181 859.303955 881.848346 825.306214 881.848346 804.33705 860.879181L512 568.542134 219.662954 860.879181C198.693786 881.848346 164.696046 881.848346 143.726876 860.879181 122.757708 839.91001 122.757708 805.912269 143.726876 784.943104L436.063923 492.606056 436.063923 492.606056 436.063923 492.606056Z" p-id="7156"></path></svg>