<?xml version="1.0" standalone="no"?><!DOCTYPE svg PUBLIC "-//W3C//DTD SVG 1.1//EN" "http://www.w3.org/Graphics/SVG/1.1/DTD/svg11.dtd"><svg t="1538184421163" class="icon" style="" viewBox="0 0 1024 1024" version="1.1" xmlns="http://www.w3.org/2000/svg" p-id="9035" xmlns:xlink="http://www.w3.org/1999/xlink" width="64" height="64"><defs><style type="text/css"></style></defs><path d="M994.304 416.768c-28.672-34.816-74.752-34.816-89.088-34.816L728.064 381.952c-48.128 0-70.656-4.096-80.896-8.192 58.368-93.184 50.176-232.448 8.192-307.2-22.528-39.936-52.224-60.416-84.992-60.416l-4.096 0c-14.336-2.048-48.128-4.096-70.656 18.432-14.336 14.336-20.48 36.864-18.432 64.512C493.568 276.48 297.984 377.856 264.192 394.24c-6.144-6.144-12.288-8.192-20.48-8.192L40.96 386.048c-16.384 0-30.72 14.336-30.72 30.72l0 570.368c0 16.384 14.336 30.72 30.72 30.72l205.824 0c8.192 0 16.384-4.096 22.528-8.192 2.048 4.096 4.096 6.144 8.192 8.192 0 0 367.616-2.048 491.52-2.048 123.904 1.024 172.032-204.8 208.896-370.688 8.192-36.864 16.384-72.704 24.576-99.328C1018.88 490.496 1016.832 447.488 994.304 416.768L994.304 416.768zM212.992 957.44l-143.36 0 0-507.904 143.36 0L212.992 957.44zM942.08 530.432c-8.192 28.672-16.384 64.512-24.576 103.424C887.808 762.88 842.752 957.44 768 957.44c-120.832 0-464.896 2.048-491.52 2.048L276.48 459.776c4.096 0 285.696-124.928 263.168-373.76 0-10.24 8.192-16.384 20.48-16.384 4.096 0 6.144 0 8.192 0l0 0c8.192 0 20.48 10.24 28.672 28.672 32.768 62.464 36.864 178.176-10.24 250.88-16.384 24.576-10.24 46.08-6.144 56.32 16.384 28.672 58.368 41.984 143.36 41.984l178.176 0c8.192 0 28.672 0 36.864 10.24C954.368 467.968 952.32 494.592 942.08 530.432L942.08 530.432z" p-id="9036"></path></svg>