<?xml version="1.0" standalone="no"?><!DOCTYPE svg PUBLIC "-//W3C//DTD SVG 1.1//EN" "http://www.w3.org/Graphics/SVG/1.1/DTD/svg11.dtd"><svg t="1536551515700" class="icon" style="" viewBox="0 0 1024 1024" version="1.1" xmlns="http://www.w3.org/2000/svg" p-id="7143" xmlns:xlink="http://www.w3.org/1999/xlink" width="64" height="64"><defs><style type="text/css"></style></defs><path d="M512.005 0C229.25 0 0.002 229.24 0.002 512.02 0.002 794.751 229.25 1024 512.004 1024c282.753 0 511.994-229.263 511.994-512.005C1024.001 229.239 794.76 0 512.005 0m195.894 707.51c0 0.005-0.022 0.02-0.022 0.02-12.887 12.892-33.802 12.908-46.713 0.015L512.069 558.733l-148.826 149.1-0.024 0.023c-12.892 12.894-33.8 12.911-46.717 0.022-12.924-12.911-12.94-33.829-0.057-46.752l148.827-149.1L316.16 363.203c-12.92-12.896-12.934-33.816-0.042-46.727l0.024-0.033c12.88-12.878 33.775-12.887 46.693 0L511.937 465.26 660.764 316.16l0.024-0.026c12.89-12.894 33.798-12.901 46.727 0 12.92 12.895 12.933 33.818 0.039 46.734L558.737 511.973 707.84 660.791c12.922 12.891 12.944 33.813 0.06 46.718" fill="" p-id="7144"></path></svg>