<?xml version="1.0" standalone="no"?><!DOCTYPE svg PUBLIC "-//W3C//DTD SVG 1.1//EN" "http://www.w3.org/Graphics/SVG/1.1/DTD/svg11.dtd"><svg t="1537958737442" class="icon" style="" viewBox="0 0 1024 1024" version="1.1" xmlns="http://www.w3.org/2000/svg" p-id="6174" xmlns:xlink="http://www.w3.org/1999/xlink" width="64" height="64"><defs><style type="text/css"></style></defs><path d="M509.98204 65.779146c-246.004857 0-446.147176 200.144366-446.147176 446.14513 0 245.99974 200.14232 446.137966 446.147176 446.137966 245.994624 0 446.137966-200.138226 446.137966-446.137966C956.120007 265.923512 755.977687 65.779146 509.98204 65.779146zM509.98204 902.295124c-215.258599 0-390.379035-175.111227-390.379035-390.370849 0-215.253482 175.12146-390.378012 390.379035-390.378012 215.250412 0 390.370849 175.12453 390.370849 390.378012C900.353912 727.183897 725.232452 902.295124 509.98204 902.295124zM720.184483 485.364363 537.857924 667.680688 537.857924 288.85478c0-15.415085-12.481266-27.888164-27.874861-27.888164-15.403828 0-27.885094 12.473079-27.885094 27.888164l0 378.825908L299.772434 485.364363c-10.889001-10.898211-28.535917-10.898211-39.426965 0-5.442966 5.442966-8.17417 12.58155-8.17417 19.709901 0 7.135514 2.731204 14.266935 8.17417 19.718087l229.918483 229.918483c10.891048 10.892071 28.535917 10.892071 39.434128 0l229.909274-229.918483c10.898211-10.891048 10.898211-28.538987 0-39.427988C748.7204 474.465129 731.071438 474.465129 720.184483 485.364363z" p-id="6175"></path></svg>