<?xml version="1.0" standalone="no"?><!DOCTYPE svg PUBLIC "-//W3C//DTD SVG 1.1//EN" "http://www.w3.org/Graphics/SVG/1.1/DTD/svg11.dtd"><svg t="1536551470333" class="icon" style="" viewBox="0 0 1024 1024" version="1.1" xmlns="http://www.w3.org/2000/svg" p-id="6467" xmlns:xlink="http://www.w3.org/1999/xlink" width="64" height="64"><defs><style type="text/css"></style></defs><path d="M507.408 50.511c-252.556 0-459.193 206.637-459.193 459.193s206.637 459.193 459.193 459.193S966.601 762.26 966.601 509.704 759.964 50.511 507.408 50.511M727.821 404.09L461.489 670.422c-9.184 9.183-18.368 9.183-27.552 9.183-9.184 0-18.367-4.592-27.551-9.183L291.587 555.623c-13.775-13.775-13.775-41.327 0-55.103 13.776-13.776 41.328-13.776 55.104 0l87.246 87.247 238.78-238.78c13.776-13.776 41.328-13.776 55.104 0 13.775 13.775 13.775 36.735 0 55.103" fill="" p-id="6468"></path></svg>