<?xml version="1.0" standalone="no"?><!DOCTYPE svg PUBLIC "-//W3C//DTD SVG 1.1//EN" "http://www.w3.org/Graphics/SVG/1.1/DTD/svg11.dtd"><svg t="1540808865011" class="icon" style="" viewBox="0 0 1024 1024" version="1.1" xmlns="http://www.w3.org/2000/svg" p-id="2500" xmlns:xlink="http://www.w3.org/1999/xlink" width="64" height="64"><defs><style type="text/css"></style></defs><path d="M512 0A512 512 0 1 0 1024 512 512.538947 512.538947 0 0 0 512 0z m0 970.105263A458.105263 458.105263 0 1 1 970.105263 512 458.644211 458.644211 0 0 1 512 970.105263z" fill="" p-id="2501"></path><path d="M448.943158 280.252632a32.336842 32.336842 0 0 0-50.122105 26.947368v380.496842a32.336842 32.336842 0 0 0 50.122105 26.947369l288.875789-190.248422a32.336842 32.336842 0 0 0 0-53.894736z" fill="" p-id="2502"></path></svg>